# Blender v2.79 (sub 0) OBJ File: 'grass-low.blend'
# www.blender.org
o Plane
v -0.700000 0.000705 -0.000000
v 0.700000 0.000705 -0.000000
v -0.700000 1.400705 0.000000
v 0.700000 1.400705 0.000000
v 0.001029 0.000705 0.699999
v -0.001029 0.000705 -0.699999
v 0.001029 1.400705 0.699999
v -0.001029 1.400705 -0.699999
vt 0.999900 0.000100
vt 0.000100 0.999900
vt 0.000100 0.000100
vt 0.999900 0.000100
vt 0.000100 0.999900
vt 0.000100 0.000100
vt 0.999900 0.999900
vt 0.999900 0.999900
vn 0.0000 -0.0000 1.0000
vn 1.0000 -0.0000 -0.0015
s off
f 2/1/1 3/2/1 1/3/1
f 6/4/2 7/5/2 5/6/2
f 2/1/1 4/7/1 3/2/1
f 6/4/2 8/8/2 7/5/2
